HIERARCHY
ROOT SpineBase
{
  OFFSET 0.000000 0.000000 0.000000
  CHANNELS 6 Xposition Yposition Zposition Zrotation Xrotation Yrotation
  JOINT SpineMid
  {
    OFFSET 0.000000 24.822612 0.000000
    CHANNELS 3 Zrotation Xrotation Yrotation
    JOINT SpineShoulder
    {
      OFFSET -0.242933 18.635781 -0.592433
      CHANNELS 3 Zrotation Xrotation Yrotation
      JOINT Neck
      {
        OFFSET -0.116236 6.253075 -0.437886
        CHANNELS 3 Zrotation Xrotation Yrotation
        JOINT Head
        {
          OFFSET 0.851153 12.432565 1.475396
          CHANNELS 3 Zrotation Xrotation Yrotation
          End Site
          {
            OFFSET 0 0 0
          }
        }
      }
      JOINT ShoulderLeft
      {
        OFFSET -9.342845 0.816569 -8.473185
        CHANNELS 3 Zrotation Xrotation Yrotation
        JOINT ElbowLeft
        {
          OFFSET 8.181068 -18.768724 -9.031430
          CHANNELS 3 Zrotation Xrotation Yrotation
          JOINT WristLeft
          {
            OFFSET -20.687514 -10.125814 3.242171
            CHANNELS 3 Zrotation Xrotation Yrotation
            JOINT HandLeft
            {
              OFFSET -3.083499 -0.827650 -1.022784
              CHANNELS 3 Zrotation Xrotation Yrotation
              JOINT HandTipLeft
              {
                OFFSET -5.577507 0.960422 2.852645
                CHANNELS 3 Zrotation Xrotation Yrotation
                End Site
                {
                  OFFSET 0 0 0
                }
              }
              JOINT ThumbLeft
              {
                OFFSET -3.193212 3.605682 1.362382
                CHANNELS 3 Zrotation Xrotation Yrotation
                End Site
                {
                  OFFSET 0 0 0
                }
              }
            }
          }
        }
      }
      JOINT ShoulderRight
      {
        OFFSET 12.384752 -0.875452 4.844842
        CHANNELS 3 Zrotation Xrotation Yrotation
        JOINT ElbowRight
        {
          OFFSET 6.128331 -20.678710 -5.114157
          CHANNELS 3 Zrotation Xrotation Yrotation
          JOINT WristRight
          {
            OFFSET -0.222178 -10.502372 -16.102214
            CHANNELS 3 Zrotation Xrotation Yrotation
            JOINT HandRight
            {
              OFFSET 0.798700 0.415068 -3.979436
              CHANNELS 3 Zrotation Xrotation Yrotation
              JOINT HandTipRight
              {
                OFFSET -0.513632 0.558047 -1.316751
                CHANNELS 3 Zrotation Xrotation Yrotation
                End Site
                {
                  OFFSET 0 0 0
                }
              }
              JOINT ThumbRight
              {
                OFFSET -1.474626 1.068732 -1.796527
                CHANNELS 3 Zrotation Xrotation Yrotation
                End Site
                {
                  OFFSET 0 0 0
                }
              }
            }
          }
        }
      }
    }
  }
  JOINT HipLeft
  {
    OFFSET -6.029332 1.393031 -5.415663
    CHANNELS 3 Zrotation Xrotation Yrotation
    JOINT KneeLeft
    {
      OFFSET 24.226384 12.554560 -25.854030
      CHANNELS 3 Zrotation Xrotation Yrotation
      JOINT AnkleLeft
      {
        OFFSET 4.041900 -35.532567 -3.035116
        CHANNELS 3 Zrotation Xrotation Yrotation
        JOINT FootLeft
        {
          OFFSET 4.380662 -0.263496 -10.823604
          CHANNELS 3 Zrotation Xrotation Yrotation
          End Site
          {
            OFFSET 0 0 0
          }
        }
      }
    }
  }
  JOINT HipRight
  {
    OFFSET 5.833055 1.319074 -0.220288
    CHANNELS 3 Zrotation Xrotation Yrotation
    JOINT KneeRight
    {
      OFFSET 20.684533 10.852116 -28.918858
      CHANNELS 3 Zrotation Xrotation Yrotation
      JOINT AnkleRight
      {
        OFFSET 5.269171 -37.169314 3.490253
        CHANNELS 3 Zrotation Xrotation Yrotation
        JOINT FootRight
        {
          OFFSET -2.866911 -4.254078 -5.716299
          CHANNELS 3 Zrotation Xrotation Yrotation
          End Site
          {
            OFFSET 0 0 0
          }
        }
      }
    }
  }
}
MOTION
Frames: 14
Frame Time: 0.033333
16.028670 30.304796 358.276190 -11.976469 -8.507138 -16.407863 -0.113084 -0.608354 14.967813 0.058129 -0.122038 -0.531204 -7.614421 1.777131 4.815361 0.000000 0.000000 0.000000 -74.959129 -34.469014 25.323996 154.827377 -29.357051 -12.498293 18.483309 -28.270498 8.400390 -18.201807 43.429383 -5.310182 0.000000 0.000000 0.000000 0.000000 0.000000 0.000000 -4.398446 -48.242829 -24.710244 14.199694 -19.340491 -3.339945 -16.198979 -64.210338 8.606165 -166.484371 5.799900 -57.217535 0.000000 0.000000 0.000000 0.000000 0.000000 0.000000 7.059529 8.909774 13.011457 0.864118 -1.435453 1.718518 -29.681016 -18.767003 -71.597461 0.000000 0.000000 0.000000 8.783376 12.881320 11.322622 1.092695 -1.376906 3.498903 -6.701423 11.461306 0.373596 0.000000 0.000000 0.000000
17.765491 31.541011 357.553113 -10.163412 -8.858731 -20.073766 -0.359371 -0.587260 18.824791 -0.097352 -0.002702 -0.456196 -12.004544 4.908080 5.874044 0.000000 0.000000 0.000000 -73.184657 -33.470327 23.359494 153.337437 -28.085960 -16.566540 10.963867 -25.581364 15.049047 -2.085553 41.498837 -19.698898 0.000000 0.000000 0.000000 0.000000 0.000000 0.000000 -9.240568 -49.081540 -26.152997 15.444226 -17.318572 -4.161241 -36.051884 -63.479187 -11.614935 130.629741 -16.830611 -31.124873 0.000000 0.000000 0.000000 0.000000 0.000000 0.000000 3.725170 6.774599 17.541642 1.416093 -0.856459 1.186499 -22.976870 -14.139900 -70.304816 0.000000 0.000000 0.000000 6.579284 12.242900 17.823196 -1.413450 -0.704964 0.633331 2.718025 13.736809 -9.614274 0.000000 0.000000 0.000000
20.028152 33.373444 356.769361 -7.562679 -8.879525 -24.528835 -0.536398 -0.596483 23.590584 -0.116436 0.029909 -0.361005 -16.099566 7.731059 6.664149 0.000000 0.000000 0.000000 -71.563470 -32.268923 20.699625 150.200804 -26.477214 -22.421568 2.373399 -23.276533 23.185802 15.688696 33.568363 -36.506053 0.000000 0.000000 0.000000 0.000000 0.000000 0.000000 -13.046927 -50.217309 -27.335369 15.857629 -16.667955 -3.949110 -50.255593 -60.687774 -25.890613 3.269832 44.865302 -29.710289 0.000000 0.000000 0.000000 0.000000 0.000000 0.000000 -0.130638 2.311231 23.398869 2.342846 0.502747 0.156597 -15.695174 -11.228552 -59.818632 0.000000 0.000000 0.000000 3.766119 9.411720 26.132764 -3.775602 1.362072 -2.966183 11.446985 16.861334 -18.670640 0.000000 0.000000 0.000000
22.551631 35.066092 356.052883 -4.824958 -8.839233 -29.230275 -0.804920 -0.661194 28.620850 -0.127412 0.068775 -0.265247 -17.671147 10.745702 6.778357 0.000000 0.000000 0.000000 -69.426616 -30.707866 18.522929 145.774605 -24.587985 -28.367379 -4.975850 -22.108678 31.449342 26.412450 22.378160 -48.717801 0.000000 0.000000 0.000000 0.000000 0.000000 0.000000 -16.429502 -50.939168 -28.077688 16.050721 -15.201506 -4.006393 -59.136217 -57.917364 -35.142064 -18.832468 54.931887 -5.903773 0.000000 0.000000 0.000000 0.000000 0.000000 0.000000 -3.017741 -2.810122 29.700105 2.615164 1.472203 -1.215587 -7.523045 -7.648700 -42.521298 0.000000 0.000000 0.000000 1.569080 5.733277 34.898036 -6.379231 4.889976 -6.455822 19.983605 20.992156 -27.343780 0.000000 0.000000 0.000000
24.882308 37.031454 355.466450 -2.128762 -8.289984 -32.478931 -1.099771 -0.718927 32.195193 -0.151751 0.105254 -0.170740 -18.059991 11.746881 6.147109 0.000000 0.000000 0.000000 -67.154695 -29.494141 15.308005 139.892249 -21.949737 -35.012530 -11.070486 -21.452411 41.945064 28.427999 9.931737 -59.760962 0.000000 0.000000 0.000000 0.000000 0.000000 0.000000 -20.342250 -51.391300 -28.627097 16.627599 -13.905911 -4.239335 -65.444891 -56.754691 -42.152584 -22.981917 57.799805 2.077329 0.000000 0.000000 0.000000 0.000000 0.000000 0.000000 -4.889695 -10.337588 34.841826 4.582516 4.028369 -3.184587 -0.601386 -2.635700 -23.698664 0.000000 0.000000 0.000000 0.640742 1.409145 42.347629 -8.120427 8.404687 -9.891872 26.748477 21.857864 -33.159396 0.000000 0.000000 0.000000
26.651980 39.410254 354.848708 -0.091897 -7.252191 -35.450791 -1.186199 -0.935131 35.384427 -0.240911 -0.060517 -0.104913 -16.368212 11.852993 4.976830 0.000000 0.000000 0.000000 -63.459031 -28.131751 12.180953 131.585242 -17.611768 -40.155058 -10.190001 -20.325411 48.442501 26.121955 2.796169 -68.508937 0.000000 0.000000 0.000000 0.000000 0.000000 0.000000 -21.499410 -51.459218 -28.252852 16.321981 -13.020052 -4.371283 -73.115913 -54.299098 -50.807065 -25.366245 58.177473 9.185710 0.000000 0.000000 0.000000 0.000000 0.000000 0.000000 -5.410883 -19.421189 39.160848 8.527268 8.194172 -5.044016 3.275712 1.485047 -7.968000 0.000000 0.000000 0.000000 1.114796 -4.262140 48.892461 -7.286193 12.092643 -12.661797 30.273865 22.808759 -36.666517 0.000000 0.000000 0.000000
28.040805 41.897092 354.453267 1.572472 -6.376367 -36.207378 -1.215536 -0.722291 36.287502 -0.141651 0.151889 -0.027834 -16.824674 11.780822 4.268308 0.000000 0.000000 0.000000 -60.535651 -27.075480 9.342047 124.544236 -13.488446 -43.872421 -6.560515 -17.987921 57.486110 21.659620 -5.095710 -80.894854 0.000000 0.000000 0.000000 0.000000 0.000000 0.000000 -23.803800 -49.938785 -26.738883 17.093120 -13.678460 -4.694531 -68.595251 -56.812525 -46.791939 -39.060701 57.776900 15.271057 0.000000 0.000000 0.000000 0.000000 0.000000 0.000000 -5.946583 -28.535043 40.993578 13.554489 12.748360 -7.232211 4.709611 3.677244 3.480025 0.000000 0.000000 0.000000 2.403203 -9.784295 53.592404 -4.824157 14.872460 -16.078027 30.350252 24.632808 -37.595153 0.000000 0.000000 0.000000
28.233220 44.151150 353.484413 2.058238 -4.561009 -39.280687 -1.019390 -0.597563 39.371638 0.142875 0.326731 0.017246 -15.487746 9.978004 3.078098 0.000000 0.000000 0.000000 -56.582708 -26.089213 6.554029 117.097277 -8.913876 -44.252089 -0.257024 -18.168249 47.352506 32.301266 3.283554 -67.548487 0.000000 0.000000 0.000000 0.000000 0.000000 0.000000 -23.075627 -48.481730 -24.574273 16.797946 -14.840376 -3.801232 -62.266679 -58.421629 -40.950888 -33.554234 56.845382 4.376123 0.000000 0.000000 0.000000 0.000000 0.000000 0.000000 -5.291647 -38.612706 41.971057 21.096477 17.937252 -7.708544 5.466642 7.614837 10.464333 0.000000 0.000000 0.000000 4.786873 -14.608934 57.791474 -2.200307 15.328498 -17.140939 30.195070 29.779713 -39.862129 0.000000 0.000000 0.000000
27.862260 47.307848 352.348346 2.074327 -2.361020 -39.907227 -0.659156 -0.482364 39.972928 0.147935 0.258388 0.044224 -12.944266 7.266841 1.896913 0.000000 0.000000 0.000000 -53.259631 -25.114544 5.145418 112.307309 -6.503233 -43.415215 2.883384 -22.654275 25.951708 37.015924 25.331712 -47.931659 0.000000 0.000000 0.000000 0.000000 0.000000 0.000000 -20.571566 -46.648244 -21.952796 15.909605 -17.607334 -4.208914 -55.249263 -59.464191 -33.938937 -18.057842 52.779088 -12.525822 0.000000 0.000000 0.000000 0.000000 0.000000 0.000000 -6.417735 -48.844699 38.814892 30.021800 24.037949 -9.018160 4.027832 6.220786 12.623359 0.000000 0.000000 0.000000 7.687573 -22.767062 58.465979 3.276874 19.402047 -16.792463 27.883086 27.577226 -36.962962 0.000000 0.000000 0.000000
27.958641 51.117131 351.277718 2.529651 -0.400154 -38.515111 -0.240238 -0.219332 38.589684 0.044976 0.126150 0.084765 -12.448889 6.244607 1.231372 0.000000 0.000000 0.000000 -50.431289 -23.035945 5.476832 107.723057 -5.458410 -42.148036 9.205017 -26.805849 9.665862 32.381751 39.604185 -37.380372 0.000000 0.000000 0.000000 0.000000 0.000000 0.000000 -18.009081 -44.546935 -19.318007 14.657712 -20.821114 -5.728886 -49.403500 -57.096179 -27.882267 0.729417 42.861913 -26.180055 0.000000 0.000000 0.000000 0.000000 0.000000 0.000000 -10.583424 -60.162910 33.364186 40.750525 30.657776 -14.077387 2.142879 3.634343 11.108792 0.000000 0.000000 0.000000 10.224739 -33.868487 58.035402 11.172003 26.322326 -17.567260 29.121307 25.328752 -39.263305 0.000000 0.000000 0.000000
28.511143 55.233995 350.134778 3.782745 1.809230 -36.197094 -0.250806 -0.564442 36.260637 -0.258105 0.060511 0.110679 -12.406112 6.176413 0.688317 0.000000 0.000000 0.000000 -48.383648 -20.396799 6.844766 105.599362 -6.778267 -42.122824 7.379910 -29.426238 1.542307 42.708116 44.144434 -40.670992 0.000000 0.000000 0.000000 0.000000 0.000000 0.000000 -14.745378 -43.965688 -17.595550 12.751631 -22.262682 -8.089536 -41.976621 -52.569090 -19.565943 14.752541 28.721409 -31.872509 0.000000 0.000000 0.000000 0.000000 0.000000 0.000000 -20.200833 -68.936394 23.242998 49.246576 35.113229 -19.340312 -0.179368 -0.894267 3.454719 0.000000 0.000000 0.000000 12.293261 -47.978194 57.694522 22.171309 33.830083 -20.766294 26.983339 23.868722 -37.725750 0.000000 0.000000 0.000000
29.119743 59.087361 349.023656 4.812873 3.933029 -33.022239 -0.191234 -0.509384 33.040834 -0.508851 0.001725 0.135922 -11.142987 6.258949 -0.092363 0.000000 0.000000 0.000000 -46.673632 -17.037507 8.847544 104.093257 -9.248158 -42.698252 6.206906 -30.925105 -1.297452 51.422284 40.308737 -48.775701 0.000000 0.000000 0.000000 0.000000 0.000000 0.000000 -11.117834 -42.968293 -15.522183 10.700274 -23.867091 -11.442411 -34.180997 -48.877973 -10.006325 21.412798 20.378526 -30.982507 0.000000 0.000000 0.000000 0.000000 0.000000 0.000000 -42.352722 -75.255346 0.858844 57.986718 38.758253 -25.380570 -3.794706 -7.513613 -4.616469 0.000000 0.000000 0.000000 11.412181 -62.679445 54.191676 35.454801 40.801860 -25.579810 21.481225 23.120635 -32.009299 0.000000 0.000000 0.000000
29.915600 62.907772 348.043898 6.150831 5.887261 -29.655865 -0.199387 -0.509478 29.589515 -0.709302 -0.028997 0.166863 -9.121893 5.252123 -0.933246 0.000000 0.000000 0.000000 -45.921371 -13.199546 11.347977 103.703193 -12.761237 -44.662495 4.943378 -31.656158 0.807247 48.969966 25.614911 -53.783162 0.000000 0.000000 0.000000 0.000000 0.000000 0.000000 -6.440130 -42.552306 -13.511779 8.009904 -23.394226 -15.489226 -30.126120 -43.496356 -3.488631 24.444996 9.471488 -27.232890 0.000000 0.000000 0.000000 0.000000 0.000000 0.000000 -73.873635 -76.635725 -30.160302 64.077021 41.570628 -29.945812 -9.781490 -16.041743 -18.924153 0.000000 0.000000 0.000000 2.496580 -77.346282 43.766416 51.370347 46.856237 -33.457124 14.214636 20.396192 -23.293794 0.000000 0.000000 0.000000
30.717508 65.734167 347.268220 7.411198 7.455292 -24.854009 -0.282142 -0.544660 24.674719 -0.858259 -0.035833 0.192643 -6.147011 4.134980 -1.662109 0.000000 0.000000 0.000000 -45.557625 -8.784834 14.369572 103.007785 -16.476343 -46.659583 2.674456 -32.359511 2.875289 35.909846 8.397914 -53.647898 0.000000 0.000000 0.000000 0.000000 0.000000 0.000000 -2.108799 -41.302150 -11.419213 5.813154 -21.008815 -19.578878 -27.849206 -37.531527 1.606721 21.756081 0.219069 -23.642522 0.000000 0.000000 0.000000 0.000000 0.000000 0.000000 -97.867132 -73.234908 -52.818796 70.690909 43.232390 -35.666257 -24.000617 -25.082165 -43.005744 0.000000 0.000000 0.000000 -77.078242 -83.807697 -36.474581 66.500877 50.411530 -42.113186 8.000133 15.915146 -15.249476 0.000000 0.000000 0.000000
